<?xml version="1.0" encoding="UTF-8"?><svg id="a" xmlns="http://www.w3.org/2000/svg" viewBox="0 0 36 36"><defs><style>.b{fill:#fff;}.b,.c{fill-rule:evenodd;}.c{fill:#00996b;}</style></defs><path class="c" d="m18,27.69c-5.35,0-9.69-4.34-9.69-9.69s4.34-9.69,9.69-9.69,9.69,4.34,9.69,9.69-4.34,9.69-9.69,9.69Zm0-27.69C8.06,0,0,8.06,0,18s8.06,18,18,18,18-8.06,18-18S27.94,0,18,0Z"/><path class="b" d="m2.08,9.6l7.36,3.84h0c.93-1.74,2.37-3.16,4.13-4.06l.02-.02-3.99-7.29c-3.2,1.69-5.83,4.32-7.53,7.52Z"/><path class="b" d="m26.4,2.08l-3.99,7.29.02.02c1.75.9,3.2,2.32,4.13,4.06h0s7.36-3.84,7.36-3.84c-1.69-3.2-4.32-5.83-7.53-7.52Z"/><path class="b" d="m9.45,22.56h0s-7.36,3.84-7.36,3.84c1.69,3.2,4.32,5.83,7.53,7.52l3.99-7.29-.02-.02c-1.75-.9-3.2-2.32-4.13-4.06Z"/><path class="b" d="m33.92,26.4l-7.36-3.84h0c-.93,1.74-2.37,3.16-4.13,4.06l-.02.02,3.99,7.29c3.2-1.69,5.83-4.32,7.53-7.52Z"/></svg>