<?xml version="1.0" encoding="UTF-8"?><svg id="a" xmlns="http://www.w3.org/2000/svg" viewBox="0 0 88.04 36"><defs><style>.b{fill:#fff;}.b,.c{fill-rule:evenodd;}.d,.c{fill:#00996b;}</style></defs><path class="c" d="m70.04,27.69c-5.35,0-9.69-4.34-9.69-9.69s4.34-9.69,9.69-9.69,9.69,4.34,9.69,9.69-4.34,9.69-9.69,9.69Zm0-27.69c-9.94,0-18,8.06-18,18s8.06,18,18,18,18-8.06,18-18S79.98,0,70.04,0Z"/><path class="b" d="m54.12,9.6l7.36,3.84h0c.93-1.74,2.37-3.16,4.13-4.06l.02-.02-3.99-7.29c-3.2,1.69-5.83,4.32-7.53,7.52Z"/><path class="b" d="m78.44,2.08l-3.99,7.29.02.02c1.75.9,3.2,2.32,4.13,4.06h0s7.36-3.84,7.36-3.84c-1.69-3.2-4.32-5.83-7.53-7.52Z"/><path class="b" d="m61.49,22.56h0s-7.36,3.84-7.36,3.84c1.69,3.2,4.32,5.83,7.53,7.52l3.99-7.29-.02-.02c-1.75-.9-3.2-2.32-4.13-4.06Z"/><path class="b" d="m85.96,26.4l-7.36-3.84h0c-.93,1.74-2.37,3.16-4.13,4.06l-.02.02,3.99,7.29c3.2-1.69,5.83-4.32,7.53-7.52Z"/><path class="b" d="m.31,24.9c-.21,0-.31-.1-.31-.31v-2.9c0-.21.1-.31.31-.31h2.57L.74,11.41l-.02-.12c0-.13.09-.19.26-.19h3.6c.21,0,.34.1.38.31l2.11,9.96h2.66c.72,0,1.22-.13,1.49-.38.27-.26.41-.78.41-1.56v-8.02c0-.21.1-.31.31-.31h3.58c.21,0,.31.1.31.31v7.78c0,2.02-.48,3.47-1.44,4.37-.96.9-2.33,1.34-4.1,1.34H.31Z"/><path class="b" d="m29.9,24.9c-.21,0-.31-.1-.31-.31v-9.96h-11.57c-.21,0-.31-.1-.31-.31v-2.9c0-.21.1-.31.31-.31h18.46c.21,0,.31.1.31.31v2.9c0,.21-.1.31-.31.31h-2.69v9.96c0,.21-.1.31-.31.31h-3.58Z"/><path class="b" d="m38.96,18.64c-.21,0-.31-.1-.31-.31v-6.91c0-.21.1-.31.31-.31h3.58c.21,0,.31.1.31.31v6.91c0,.21-.1.31-.31.31h-3.58Z"/></svg>