<?xml version="1.0" encoding="UTF-8"?><svg id="a" xmlns="http://www.w3.org/2000/svg" viewBox="0 0 24 16"><defs><style>.f{fill:#fff;}</style></defs><g id="b"><path id="c" class="f" d="m22.73,6.67H1.27c-.7,0-1.27.57-1.27,1.27v.13c0,.7.57,1.27,1.27,1.27h21.47c.7,0,1.27-.57,1.27-1.27v-.13c0-.7-.57-1.27-1.27-1.27Z"/><path id="d" class="f" d="m22.73,13.33H1.27c-.7,0-1.27.57-1.27,1.27v.13c0,.7.57,1.27,1.27,1.27h21.47c.7,0,1.27-.57,1.27-1.27v-.13c0-.7-.57-1.27-1.27-1.27Z"/><path id="e" class="f" d="m22.73,0H1.27C.57,0,0,.57,0,1.27v.13c0,.7.57,1.27,1.27,1.27h21.47c.7,0,1.27-.57,1.27-1.27v-.13c0-.7-.57-1.27-1.27-1.27Z"/></g></svg>