<?xml version="1.0" encoding="UTF-8"?><svg id="a" xmlns="http://www.w3.org/2000/svg" viewBox="0 0 16 16"><defs><style>.c{fill:#fff;}</style></defs><path id="b" class="c" d="m15.74,14.48l-3.02-3.01c.97-1.24,1.5-2.78,1.5-4.35,0-1.41-.42-2.78-1.2-3.95-.78-1.17-1.89-2.08-3.19-2.62C8.53,0,7.1-.14,5.72.14c-1.38.27-2.65.95-3.64,1.95-.99.99-1.67,2.26-1.95,3.64C-.14,7.1,0,8.53.54,9.83c.54,1.3,1.45,2.41,2.62,3.19,1.17.78,2.54,1.2,3.95,1.2,1.58,0,3.11-.53,4.35-1.5l3.01,3.02c.08.08.18.15.29.19.11.05.22.07.34.07s.23-.02.34-.07c.11-.05.21-.11.29-.19.08-.08.15-.18.19-.29.05-.11.07-.22.07-.34s-.02-.23-.07-.34c-.05-.11-.11-.21-.19-.29ZM1.78,7.11c0-1.05.31-2.09.9-2.96.59-.88,1.42-1.56,2.39-1.96.97-.4,2.05-.51,3.08-.3,1.03.21,1.98.71,2.73,1.46.75.75,1.25,1.7,1.46,2.73.21,1.03.1,2.11-.3,3.08-.4.97-1.09,1.81-1.96,2.39-.88.59-1.91.9-2.96.9-1.41,0-2.77-.56-3.77-1.56-1-1-1.56-2.36-1.56-3.77Z"/></svg>